<svg id="instagram" xmlns="http://www.w3.org/2000/svg" width="30.341" height="30.341" viewBox="0 0 30.341 30.341">
  <g id="Group_3" data-name="Group 3">
    <g id="Group_2" data-name="Group 2">
      <path id="Path_6" data-name="Path 6" d="M20.859,0H9.481A9.482,9.482,0,0,0,0,9.481V20.859a9.482,9.482,0,0,0,9.481,9.481H20.859a9.482,9.482,0,0,0,9.481-9.481V9.481A9.482,9.482,0,0,0,20.859,0ZM27.5,20.859A6.644,6.644,0,0,1,20.859,27.5H9.481a6.644,6.644,0,0,1-6.637-6.637V9.481A6.644,6.644,0,0,1,9.481,2.844H20.859A6.644,6.644,0,0,1,27.5,9.481Z" fill="#777"/>
    </g>
  </g>
  <g id="Group_5" data-name="Group 5" transform="translate(7.585 7.585)">
    <g id="Group_4" data-name="Group 4">
      <path id="Path_7" data-name="Path 7" d="M135.585,128a7.585,7.585,0,1,0,7.585,7.585A7.586,7.586,0,0,0,135.585,128Zm0,12.326a4.741,4.741,0,1,1,4.741-4.741A4.747,4.747,0,0,1,135.585,140.326Z" transform="translate(-128 -128)" fill="#777"/>
    </g>
  </g>
  <g id="Group_7" data-name="Group 7" transform="translate(22.314 6.006)">
    <g id="Group_6" data-name="Group 6">
      <circle id="Ellipse_1" data-name="Ellipse 1" cx="1.011" cy="1.011" r="1.011" fill="#777"/>
    </g>
  </g>
</svg>
