<svg id="linkedin_1_" data-name="linkedin (1)" xmlns="http://www.w3.org/2000/svg" width="32" height="32" viewBox="0 0 32 32">
  <path id="Path_3" data-name="Path 3" d="M29.162,29.475h.008V17.738c0-5.741-1.236-10.164-7.948-10.164a6.968,6.968,0,0,0-6.276,3.449h-.093V8.11H8.489V29.474h6.627V18.9c0-2.785.528-5.479,3.977-5.479,3.4,0,3.449,3.179,3.449,5.657v10.4Z" transform="translate(2.83 2.525)" fill="#777"/>
  <path id="Path_4" data-name="Path 4" d="M.4,7.977H7.031V29.341H.4Z" transform="translate(0.132 2.659)" fill="#777"/>
  <path id="Path_5" data-name="Path 5" d="M3.843,0A3.861,3.861,0,1,0,7.685,3.843,3.844,3.844,0,0,0,3.843,0Z" fill="#777"/>
</svg>
